<?xml version="1.0" encoding="utf-8"?>
<!-- Generator: Adobe Illustrator 15.1.0, SVG Export Plug-In . SVG Version: 6.00 Build 0)  -->
<!DOCTYPE svg PUBLIC "-//W3C//DTD SVG 1.1//EN" "http://www.w3.org/Graphics/SVG/1.1/DTD/svg11.dtd">
<svg version="1.1" id="Ebene_1" xmlns="http://www.w3.org/2000/svg" xmlns:xlink="http://www.w3.org/1999/xlink" x="0px" y="0px"
	 width="100px" height="100px" viewBox="0 0 100 100" enable-background="new 0 0 100 100" xml:space="preserve">
<path fill="#990000" d="M0,0h100v100H0V0z"/>
<g>
	<path fill="#510000" d="M37.445,66.818c0.361,3.09,1.145,5.259,2.349,6.502c2.088,2.289,6.022,3.434,11.8,3.434
		c3.373,0.039,6.062-0.464,8.07-1.507c1.967-1.002,2.949-2.508,2.949-4.516c0-1.886-0.803-3.351-2.408-4.395
		c-1.646-0.964-7.606-2.69-17.883-5.18c-7.427-1.847-12.664-4.153-15.716-6.924c-3.089-2.688-4.614-6.623-4.575-11.801
		c0-6.021,2.389-11.239,7.165-15.655c4.737-4.335,11.421-6.503,20.05-6.503c8.19,0,14.873,1.625,20.05,4.877
		c5.098,3.331,8.048,8.991,8.851,16.98H60.988c-0.241-2.208-0.863-3.955-1.867-5.24c-1.927-2.328-5.139-3.492-9.634-3.492
		c-3.733,0.041-6.382,0.622-7.947,1.746c-1.646,1.164-2.448,2.529-2.408,4.095c0,2.007,0.842,3.433,2.528,4.274
		c1.686,0.964,7.647,2.55,17.883,4.756c6.783,1.647,11.899,4.076,15.353,7.286c3.372,3.33,5.059,7.445,5.059,12.343
		c0,6.504-2.41,11.802-7.226,15.896c-4.898,4.175-12.384,6.243-22.458,6.202c-10.357,0.041-17.963-2.147-22.82-6.563
		c-4.937-4.336-7.406-9.875-7.406-16.618H37.445z"/>
	<path fill="#FFFFFF" d="M37.445,56.542c0.361,3.09,1.145,5.258,2.349,6.503c2.088,2.286,6.022,3.431,11.8,3.431
		c3.373,0.04,6.062-0.46,8.07-1.504c1.967-1.004,2.949-2.509,2.949-4.517c0-1.887-0.803-3.351-2.408-4.395
		c-1.646-0.962-7.606-2.689-17.883-5.178c-7.427-1.847-12.664-4.155-15.716-6.925c-3.089-2.69-4.614-6.623-4.575-11.8
		c0-6.021,2.389-11.239,7.165-15.655C33.933,12.167,40.617,10,49.246,10c8.19,0,14.873,1.625,20.05,4.877
		c5.098,3.331,8.048,8.991,8.851,16.979H60.988c-0.241-2.208-0.863-3.954-1.867-5.238c-1.927-2.328-5.139-3.492-9.634-3.492
		c-3.733,0.04-6.382,0.622-7.947,1.746c-1.646,1.164-2.448,2.528-2.408,4.093c0,2.008,0.842,3.433,2.528,4.276
		c1.686,0.963,7.647,2.548,17.883,4.757c6.783,1.645,11.899,4.073,15.353,7.285c3.372,3.331,5.059,7.445,5.059,12.343
		c0,6.501-2.41,11.801-7.226,15.896c-4.898,4.174-12.384,6.24-22.458,6.202c-10.357,0.038-17.963-2.149-22.82-6.564
		c-4.937-4.335-7.406-9.874-7.406-16.618H37.445z"/>
</g>
</svg>
