<?xml version="1.0" encoding="UTF-8" standalone="no"?>
<!DOCTYPE svg PUBLIC "-//W3C//DTD SVG 1.1//EN"
 "http://www.w3.org/Graphics/SVG/1.1/DTD/svg11.dtd">
<!-- Generated by graphviz version 2.38.0 (20140413.2041)
 -->
<!-- Title: G Pages: 1 -->
<svg width="1504pt" height="567pt"
 viewBox="0.00 0.00 1504.00 567.00" xmlns="http://www.w3.org/2000/svg" xmlns:xlink="http://www.w3.org/1999/xlink">
<g id="graph0" class="graph" transform="scale(1 1) rotate(0) translate(4 563)">
<title>G</title>
<polygon fill="white" stroke="none" points="-4,4 -4,-563 1500,-563 1500,4 -4,4"/>
<!-- jkphl/micrometa -->
<g id="node1" class="node"><title>jkphl/micrometa</title>
<path fill="#eeeeee" stroke="black" stroke-width="2" d="M708.5,-559C708.5,-559 625.5,-559 625.5,-559 619.5,-559 613.5,-553 613.5,-547 613.5,-547 613.5,-535 613.5,-535 613.5,-529 619.5,-523 625.5,-523 625.5,-523 708.5,-523 708.5,-523 714.5,-523 720.5,-529 720.5,-535 720.5,-535 720.5,-547 720.5,-547 720.5,-553 714.5,-559 708.5,-559"/>
<text text-anchor="middle" x="667" y="-537.3" font-family="Times,serif" font-size="14.00" fill="#314b5f">jkphl/micrometa</text>
</g>
<!-- php -->
<g id="node2" class="node"><title>php</title>
<path fill="#eeeeee" stroke="black" d="M461,-36C461,-36 431,-36 431,-36 425,-36 419,-30 419,-24 419,-24 419,-12 419,-12 419,-6 425,-0 431,-0 431,-0 461,-0 461,-0 467,-0 473,-6 473,-12 473,-12 473,-24 473,-24 473,-30 467,-36 461,-36"/>
<text text-anchor="middle" x="446" y="-14.3" font-family="Times,serif" font-size="14.00" fill="#314b5f">php</text>
</g>
<!-- jkphl/micrometa&#45;&gt;php -->
<g id="edge1" class="edge"><title>jkphl/micrometa&#45;&gt;php</title>
<path fill="none" stroke="#1a2833" d="M613.263,-539.093C454.73,-535.712 0,-520.642 0,-459 0,-459 0,-459 0,-100 0,-60.5169 38.5125,-66.3937 76,-54 137.048,-33.817 327.297,-23.8464 408.575,-20.4199"/>
<polygon fill="#1a2833" stroke="#1a2833" points="408.994,-23.9058 418.842,-19.9977 408.707,-16.9117 408.994,-23.9058"/>
<text text-anchor="middle" x="12.5" y="-289.5" font-family="Times,serif" font-size="10.00" fill="#767676">&gt;=5.5</text>
</g>
<!-- jkphl/dom&#45;factory -->
<g id="node3" class="node"><title>jkphl/dom&#45;factory</title>
<path fill="#eeeeee" stroke="black" d="M350,-393C350,-393 216,-393 216,-393 210,-393 204,-387 204,-381 204,-381 204,-369 204,-369 204,-363 210,-357 216,-357 216,-357 350,-357 350,-357 356,-357 362,-363 362,-369 362,-369 362,-381 362,-381 362,-387 356,-393 350,-393"/>
<text text-anchor="middle" x="283" y="-371.3" font-family="Times,serif" font-size="14.00" fill="#314b5f">jkphl/dom&#45;factory: v0.1.0</text>
</g>
<!-- jkphl/micrometa&#45;&gt;jkphl/dom&#45;factory -->
<g id="edge2" class="edge"><title>jkphl/micrometa&#45;&gt;jkphl/dom&#45;factory</title>
<path fill="none" stroke="#1a2833" d="M621.47,-522.976C606.887,-517.393 590.711,-511.063 576,-505 488.139,-468.786 386.939,-423.402 329.412,-397.251"/>
<polygon fill="#1a2833" stroke="#1a2833" points="330.771,-394.024 320.22,-393.067 327.872,-400.395 330.771,-394.024"/>
<text text-anchor="middle" x="517.5" y="-455.5" font-family="Times,serif" font-size="10.00" fill="#767676">^0.1.0</text>
</g>
<!-- jkphl/rdfa&#45;lite&#45;microdata -->
<g id="node4" class="node"><title>jkphl/rdfa&#45;lite&#45;microdata</title>
<path fill="#eeeeee" stroke="black" d="M367.5,-476C367.5,-476 198.5,-476 198.5,-476 192.5,-476 186.5,-470 186.5,-464 186.5,-464 186.5,-452 186.5,-452 186.5,-446 192.5,-440 198.5,-440 198.5,-440 367.5,-440 367.5,-440 373.5,-440 379.5,-446 379.5,-452 379.5,-452 379.5,-464 379.5,-464 379.5,-470 373.5,-476 367.5,-476"/>
<text text-anchor="middle" x="283" y="-454.3" font-family="Times,serif" font-size="14.00" fill="#314b5f">jkphl/rdfa&#45;lite&#45;microdata: v0.4.0</text>
</g>
<!-- jkphl/micrometa&#45;&gt;jkphl/rdfa&#45;lite&#45;microdata -->
<g id="edge3" class="edge"><title>jkphl/micrometa&#45;&gt;jkphl/rdfa&#45;lite&#45;microdata</title>
<path fill="none" stroke="#1a2833" d="M613.376,-534.21C565.881,-528.546 494.844,-518.759 434,-505 403.275,-498.052 369.698,-488.069 342.025,-479.178"/>
<polygon fill="#1a2833" stroke="#1a2833" points="343.09,-475.844 332.498,-476.085 340.929,-482.502 343.09,-475.844"/>
<text text-anchor="middle" x="446.5" y="-497" font-family="Times,serif" font-size="10.00" fill="#767676">^0.4.0</text>
</g>
<!-- league/uri -->
<g id="node5" class="node"><title>league/uri</title>
<path fill="#eeeeee" stroke="black" d="M1179,-227C1179,-227 1097,-227 1097,-227 1091,-227 1085,-221 1085,-215 1085,-215 1085,-203 1085,-203 1085,-197 1091,-191 1097,-191 1097,-191 1179,-191 1179,-191 1185,-191 1191,-197 1191,-203 1191,-203 1191,-215 1191,-215 1191,-221 1185,-227 1179,-227"/>
<text text-anchor="middle" x="1138" y="-205.3" font-family="Times,serif" font-size="14.00" fill="#314b5f">league/uri: 4.2.2</text>
</g>
<!-- jkphl/micrometa&#45;&gt;league/uri -->
<g id="edge4" class="edge"><title>jkphl/micrometa&#45;&gt;league/uri</title>
<path fill="none" stroke="#1a2833" d="M720.89,-540.444C831.951,-539.903 1076,-530.572 1076,-459 1076,-459 1076,-459 1076,-291 1076,-268.476 1091.3,-248.339 1106.7,-233.778"/>
<polygon fill="#1a2833" stroke="#1a2833" points="1109.07,-236.358 1114.21,-227.091 1104.41,-231.132 1109.07,-236.358"/>
<text text-anchor="middle" x="1082.5" y="-372.5" font-family="Times,serif" font-size="10.00" fill="#767676">4.*</text>
</g>
<!-- mf2/mf2 -->
<g id="node6" class="node"><title>mf2/mf2</title>
<path fill="#eeeeee" stroke="black" d="M790.5,-476C790.5,-476 707.5,-476 707.5,-476 701.5,-476 695.5,-470 695.5,-464 695.5,-464 695.5,-452 695.5,-452 695.5,-446 701.5,-440 707.5,-440 707.5,-440 790.5,-440 790.5,-440 796.5,-440 802.5,-446 802.5,-452 802.5,-452 802.5,-464 802.5,-464 802.5,-470 796.5,-476 790.5,-476"/>
<text text-anchor="middle" x="749" y="-454.3" font-family="Times,serif" font-size="14.00" fill="#314b5f">mf2/mf2: v0.3.1</text>
</g>
<!-- jkphl/micrometa&#45;&gt;mf2/mf2 -->
<g id="edge5" class="edge"><title>jkphl/micrometa&#45;&gt;mf2/mf2</title>
<path fill="none" stroke="#1a2833" d="M684.39,-522.822C696.023,-511.331 711.502,-496.041 724.393,-483.307"/>
<polygon fill="#1a2833" stroke="#1a2833" points="726.98,-485.671 731.635,-476.153 722.061,-480.691 726.98,-485.671"/>
<text text-anchor="middle" x="725.5" y="-497" font-family="Times,serif" font-size="10.00" fill="#767676">^0.3.1</text>
</g>
<!-- ml/json&#45;ld -->
<g id="node7" class="node"><title>ml/json&#45;ld</title>
<path fill="#eeeeee" stroke="black" d="M951,-227C951,-227 867,-227 867,-227 861,-227 855,-221 855,-215 855,-215 855,-203 855,-203 855,-197 861,-191 867,-191 867,-191 951,-191 951,-191 957,-191 963,-197 963,-203 963,-203 963,-215 963,-215 963,-221 957,-227 951,-227"/>
<text text-anchor="middle" x="909" y="-205.3" font-family="Times,serif" font-size="14.00" fill="#314b5f">ml/json&#45;ld: 1.0.7</text>
</g>
<!-- jkphl/micrometa&#45;&gt;ml/json&#45;ld -->
<g id="edge6" class="edge"><title>jkphl/micrometa&#45;&gt;ml/json&#45;ld</title>
<path fill="none" stroke="#1a2833" d="M720.582,-536.218C805.382,-528.741 961,-508.304 961,-459 961,-459 961,-459 961,-291 961,-269.85 948.29,-249.815 935.438,-234.962"/>
<polygon fill="#1a2833" stroke="#1a2833" points="937.708,-232.26 928.363,-227.269 932.556,-236.998 937.708,-232.26"/>
<text text-anchor="middle" x="970" y="-372.5" font-family="Times,serif" font-size="10.00" fill="#767676">^1.0</text>
</g>
<!-- monolog/monolog -->
<g id="node8" class="node"><title>monolog/monolog</title>
<path fill="#eeeeee" stroke="black" d="M627,-310C627,-310 491,-310 491,-310 485,-310 479,-304 479,-298 479,-298 479,-286 479,-286 479,-280 485,-274 491,-274 491,-274 627,-274 627,-274 633,-274 639,-280 639,-286 639,-286 639,-298 639,-298 639,-304 633,-310 627,-310"/>
<text text-anchor="middle" x="559" y="-288.3" font-family="Times,serif" font-size="14.00" fill="#314b5f">monolog/monolog: 1.22.1</text>
</g>
<!-- jkphl/micrometa&#45;&gt;monolog/monolog -->
<g id="edge7" class="edge"><title>jkphl/micrometa&#45;&gt;monolog/monolog</title>
<path fill="none" stroke="#1a2833" d="M659.406,-522.631C640.77,-480.012 592.69,-370.051 570.516,-319.337"/>
<polygon fill="#1a2833" stroke="#1a2833" points="573.656,-317.782 566.443,-310.021 567.242,-320.586 573.656,-317.782"/>
<text text-anchor="middle" x="626.5" y="-414" font-family="Times,serif" font-size="10.00" fill="#767676">^1.22</text>
</g>
<!-- psr/log -->
<g id="node9" class="node"><title>psr/log</title>
<path fill="#eeeeee" stroke="black" d="M652.5,-227C652.5,-227 587.5,-227 587.5,-227 581.5,-227 575.5,-221 575.5,-215 575.5,-215 575.5,-203 575.5,-203 575.5,-197 581.5,-191 587.5,-191 587.5,-191 652.5,-191 652.5,-191 658.5,-191 664.5,-197 664.5,-203 664.5,-203 664.5,-215 664.5,-215 664.5,-221 658.5,-227 652.5,-227"/>
<text text-anchor="middle" x="620" y="-205.3" font-family="Times,serif" font-size="14.00" fill="#314b5f">psr/log: 1.0.2</text>
</g>
<!-- jkphl/micrometa&#45;&gt;psr/log -->
<g id="edge8" class="edge"><title>jkphl/micrometa&#45;&gt;psr/log</title>
<path fill="none" stroke="#1a2833" d="M667,-522.934C667,-506.541 667,-481.078 667,-459 667,-459 667,-459 667,-291 667,-270.149 655.204,-249.86 643.431,-234.804"/>
<polygon fill="#1a2833" stroke="#1a2833" points="646.045,-232.472 636.968,-227.007 640.655,-236.94 646.045,-232.472"/>
<text text-anchor="middle" x="676" y="-372.5" font-family="Times,serif" font-size="10.00" fill="#767676">^1.0</text>
</g>
<!-- microformats/test -->
<g id="node10" class="node"><title>microformats/test</title>
<path fill="#eeeeee" stroke="black" d="M913,-393C913,-393 755,-393 755,-393 749,-393 743,-387 743,-381 743,-381 743,-369 743,-369 743,-363 749,-357 755,-357 755,-357 913,-357 913,-357 919,-357 925,-363 925,-369 925,-369 925,-381 925,-381 925,-387 919,-393 913,-393"/>
<text text-anchor="middle" x="834" y="-371.3" font-family="Times,serif" font-size="14.00" fill="#314b5f">microformats/test: dev&#45;master</text>
</g>
<!-- jkphl/micrometa&#45;&gt;microformats/test -->
<g id="edge9" class="edge"><title>jkphl/micrometa&#45;&gt;microformats/test</title>
<path fill="none" stroke="#1a2833" stroke-dasharray="5,2" d="M720.6,-528.467C751.229,-519.21 788.003,-503.13 811,-476 828.125,-455.797 833.117,-425.332 834.292,-403.339"/>
<polygon fill="#1a2833" stroke="#1a2833" points="837.791,-403.408 834.599,-393.305 830.795,-403.194 837.791,-403.408"/>
<text text-anchor="middle" x="841.5" y="-455.5" font-family="Times,serif" font-size="10.00" fill="#767676">@dev</text>
</g>
<!-- jkphl/dom&#45;factory&#45;&gt;php -->
<g id="edge24" class="edge"><title>jkphl/dom&#45;factory&#45;&gt;php</title>
<path fill="none" stroke="#1a2833" d="M279.594,-356.893C274.347,-329.575 264.524,-274.35 261,-227 256.062,-160.64 259.383,-134.106 302,-83 329.035,-50.5797 375.794,-33.9905 408.679,-25.9265"/>
<polygon fill="#1a2833" stroke="#1a2833" points="409.861,-29.2462 418.826,-23.5986 408.296,-22.4235 409.861,-29.2462"/>
<text text-anchor="middle" x="273.5" y="-206.5" font-family="Times,serif" font-size="10.00" fill="#767676">&gt;=5.6</text>
</g>
<!-- guzzlehttp/guzzle -->
<g id="node11" class="node"><title>guzzlehttp/guzzle</title>
<path fill="#eeeeee" stroke="black" d="M447.5,-310C447.5,-310 324.5,-310 324.5,-310 318.5,-310 312.5,-304 312.5,-298 312.5,-298 312.5,-286 312.5,-286 312.5,-280 318.5,-274 324.5,-274 324.5,-274 447.5,-274 447.5,-274 453.5,-274 459.5,-280 459.5,-286 459.5,-286 459.5,-298 459.5,-298 459.5,-304 453.5,-310 447.5,-310"/>
<text text-anchor="middle" x="386" y="-288.3" font-family="Times,serif" font-size="14.00" fill="#314b5f">guzzlehttp/guzzle: 6.2.3</text>
</g>
<!-- jkphl/dom&#45;factory&#45;&gt;guzzlehttp/guzzle -->
<g id="edge22" class="edge"><title>jkphl/dom&#45;factory&#45;&gt;guzzlehttp/guzzle</title>
<path fill="none" stroke="#1a2833" d="M304.844,-356.822C319.728,-345.116 339.627,-329.468 355.995,-316.596"/>
<polygon fill="#1a2833" stroke="#1a2833" points="358.491,-319.086 364.188,-310.153 354.164,-313.584 358.491,-319.086"/>
<text text-anchor="middle" x="350" y="-331" font-family="Times,serif" font-size="10.00" fill="#767676">^6.2</text>
</g>
<!-- masterminds/html5 -->
<g id="node19" class="node"><title>masterminds/html5</title>
<path fill="#eeeeee" stroke="black" d="M227,-310C227,-310 93,-310 93,-310 87,-310 81,-304 81,-298 81,-298 81,-286 81,-286 81,-280 87,-274 93,-274 93,-274 227,-274 227,-274 233,-274 239,-280 239,-286 239,-286 239,-298 239,-298 239,-304 233,-310 227,-310"/>
<text text-anchor="middle" x="160" y="-288.3" font-family="Times,serif" font-size="14.00" fill="#314b5f">masterminds/html5: 2.2.2</text>
</g>
<!-- jkphl/dom&#45;factory&#45;&gt;masterminds/html5 -->
<g id="edge23" class="edge"><title>jkphl/dom&#45;factory&#45;&gt;masterminds/html5</title>
<path fill="none" stroke="#1a2833" d="M256.915,-356.822C238.732,-344.848 214.284,-328.748 194.493,-315.715"/>
<polygon fill="#1a2833" stroke="#1a2833" points="196.324,-312.73 186.048,-310.153 192.474,-318.576 196.324,-312.73"/>
<text text-anchor="middle" x="238" y="-331" font-family="Times,serif" font-size="10.00" fill="#767676">^2.2</text>
</g>
<!-- jkphl/rdfa&#45;lite&#45;microdata&#45;&gt;php -->
<g id="edge26" class="edge"><title>jkphl/rdfa&#45;lite&#45;microdata&#45;&gt;php</title>
<path fill="none" stroke="#1a2833" d="M186.459,-440.929C123.517,-427.616 53,-406.005 53,-376 53,-376 53,-376 53,-100 53,-27.7448 311.05,-19.4031 408.945,-18.8383"/>
<polygon fill="#1a2833" stroke="#1a2833" points="408.999,-22.3382 418.988,-18.8048 408.976,-15.3383 408.999,-22.3382"/>
<text text-anchor="middle" x="65.5" y="-248" font-family="Times,serif" font-size="10.00" fill="#767676">&gt;=5.5</text>
</g>
<!-- jkphl/rdfa&#45;lite&#45;microdata&#45;&gt;jkphl/dom&#45;factory -->
<g id="edge25" class="edge"><title>jkphl/rdfa&#45;lite&#45;microdata&#45;&gt;jkphl/dom&#45;factory</title>
<path fill="none" stroke="#1a2833" d="M283,-439.822C283,-429.19 283,-415.306 283,-403.204"/>
<polygon fill="#1a2833" stroke="#1a2833" points="286.5,-403.153 283,-393.153 279.5,-403.153 286.5,-403.153"/>
<text text-anchor="middle" x="295.5" y="-414" font-family="Times,serif" font-size="10.00" fill="#767676">^0.1.0</text>
</g>
<!-- league/uri&#45;&gt;php -->
<g id="edge31" class="edge"><title>league/uri&#45;&gt;php</title>
<path fill="none" stroke="#1a2833" d="M1084.96,-196.828C1068.69,-191.55 1051.52,-183.922 1038,-173 1001.53,-143.543 1021.43,-109.848 983,-83 901.997,-26.4073 591.155,-19.611 483.198,-18.9832"/>
<polygon fill="#1a2833" stroke="#1a2833" points="483.119,-15.4829 473.104,-18.9393 483.089,-22.4828 483.119,-15.4829"/>
<text text-anchor="middle" x="1025.5" y="-98.5" font-family="Times,serif" font-size="10.00" fill="#767676">&gt;=5.5.9</text>
</g>
<!-- psr/http&#45;message -->
<g id="node15" class="node"><title>psr/http&#45;message</title>
<path fill="#eeeeee" stroke="black" d="M606,-119C606,-119 486,-119 486,-119 480,-119 474,-113 474,-107 474,-107 474,-95 474,-95 474,-89 480,-83 486,-83 486,-83 606,-83 606,-83 612,-83 618,-89 618,-95 618,-95 618,-107 618,-107 618,-113 612,-119 606,-119"/>
<text text-anchor="middle" x="546" y="-97.3" font-family="Times,serif" font-size="14.00" fill="#314b5f">psr/http&#45;message: 1.0.1</text>
</g>
<!-- league/uri&#45;&gt;psr/http&#45;message -->
<g id="edge32" class="edge"><title>league/uri&#45;&gt;psr/http&#45;message</title>
<path fill="none" stroke="#1a2833" d="M1084.77,-203.193C1027.15,-197.592 932.664,-187.252 852,-173 772.258,-158.911 682.075,-137.28 620.39,-121.596"/>
<polygon fill="#1a2833" stroke="#1a2833" points="620.915,-118.117 610.36,-119.034 619.182,-124.9 620.915,-118.117"/>
<text text-anchor="middle" x="861" y="-152.5" font-family="Times,serif" font-size="10.00" fill="#767676">^1.0</text>
</g>
<!-- jeremykendall/php&#45;domain&#45;parser -->
<g id="node16" class="node"><title>jeremykendall/php&#45;domain&#45;parser</title>
<path fill="#eeeeee" stroke="black" d="M1462.5,-119C1462.5,-119 1249.5,-119 1249.5,-119 1243.5,-119 1237.5,-113 1237.5,-107 1237.5,-107 1237.5,-95 1237.5,-95 1237.5,-89 1243.5,-83 1249.5,-83 1249.5,-83 1462.5,-83 1462.5,-83 1468.5,-83 1474.5,-89 1474.5,-95 1474.5,-95 1474.5,-107 1474.5,-107 1474.5,-113 1468.5,-119 1462.5,-119"/>
<text text-anchor="middle" x="1356" y="-97.3" font-family="Times,serif" font-size="14.00" fill="#314b5f">jeremykendall/php&#45;domain&#45;parser: 3.0.0</text>
</g>
<!-- league/uri&#45;&gt;jeremykendall/php&#45;domain&#45;parser -->
<g id="edge30" class="edge"><title>league/uri&#45;&gt;jeremykendall/php&#45;domain&#45;parser</title>
<path fill="none" stroke="#1a2833" d="M1184.67,-190.946C1198.46,-185.561 1213.47,-179.35 1227,-173 1258.64,-158.148 1293.27,-138.911 1318.68,-124.208"/>
<polygon fill="#1a2833" stroke="#1a2833" points="1320.72,-127.069 1327.6,-119.012 1317.2,-121.02 1320.72,-127.069"/>
<text text-anchor="middle" x="1304" y="-152.5" font-family="Times,serif" font-size="10.00" fill="#767676">^3.0</text>
</g>
<!-- ext&#45;intl -->
<g id="node17" class="node"><title>ext&#45;intl</title>
<path fill="#eeeeee" stroke="black" d="M1460,-36C1460,-36 1428,-36 1428,-36 1422,-36 1416,-30 1416,-24 1416,-24 1416,-12 1416,-12 1416,-6 1422,-0 1428,-0 1428,-0 1460,-0 1460,-0 1466,-0 1472,-6 1472,-12 1472,-12 1472,-24 1472,-24 1472,-30 1466,-36 1460,-36"/>
<text text-anchor="middle" x="1444" y="-14.3" font-family="Times,serif" font-size="14.00" fill="#314b5f">ext&#45;intl</text>
</g>
<!-- league/uri&#45;&gt;ext&#45;intl -->
<g id="edge28" class="edge"><title>league/uri&#45;&gt;ext&#45;intl</title>
<path fill="none" stroke="#1a2833" d="M1191.21,-202.414C1279.24,-191.923 1448.88,-165.984 1483,-119 1499.53,-96.2386 1483,-65.548 1466.66,-44.1947"/>
<polygon fill="#1a2833" stroke="#1a2833" points="1469.24,-41.8157 1460.24,-36.2252 1463.79,-46.2079 1469.24,-41.8157"/>
<text text-anchor="middle" x="1493" y="-98.5" font-family="Times,serif" font-size="10.00" fill="#767676">*</text>
</g>
<!-- ext&#45;mbstring -->
<g id="node18" class="node"><title>ext&#45;mbstring</title>
<path fill="#eeeeee" stroke="black" d="M1305,-36C1305,-36 1243,-36 1243,-36 1237,-36 1231,-30 1231,-24 1231,-24 1231,-12 1231,-12 1231,-6 1237,-0 1243,-0 1243,-0 1305,-0 1305,-0 1311,-0 1317,-6 1317,-12 1317,-12 1317,-24 1317,-24 1317,-30 1311,-36 1305,-36"/>
<text text-anchor="middle" x="1274" y="-14.3" font-family="Times,serif" font-size="14.00" fill="#314b5f">ext&#45;mbstring</text>
</g>
<!-- league/uri&#45;&gt;ext&#45;mbstring -->
<g id="edge29" class="edge"><title>league/uri&#45;&gt;ext&#45;mbstring</title>
<path fill="none" stroke="#1a2833" d="M1148.93,-190.678C1164.52,-166.231 1194.32,-120.413 1222,-83 1231.73,-69.8496 1243.13,-55.6879 1252.78,-44.0377"/>
<polygon fill="#1a2833" stroke="#1a2833" points="1255.72,-45.9701 1259.44,-36.0487 1250.35,-41.4865 1255.72,-45.9701"/>
<text text-anchor="middle" x="1225" y="-98.5" font-family="Times,serif" font-size="10.00" fill="#767676">*</text>
</g>
<!-- ext&#45;fileinfo -->
<g id="node20" class="node"><title>ext&#45;fileinfo</title>
<path fill="#eeeeee" stroke="black" d="M1164.5,-119C1164.5,-119 1111.5,-119 1111.5,-119 1105.5,-119 1099.5,-113 1099.5,-107 1099.5,-107 1099.5,-95 1099.5,-95 1099.5,-89 1105.5,-83 1111.5,-83 1111.5,-83 1164.5,-83 1164.5,-83 1170.5,-83 1176.5,-89 1176.5,-95 1176.5,-95 1176.5,-107 1176.5,-107 1176.5,-113 1170.5,-119 1164.5,-119"/>
<text text-anchor="middle" x="1138" y="-97.3" font-family="Times,serif" font-size="14.00" fill="#314b5f">ext&#45;fileinfo</text>
</g>
<!-- league/uri&#45;&gt;ext&#45;fileinfo -->
<g id="edge27" class="edge"><title>league/uri&#45;&gt;ext&#45;fileinfo</title>
<path fill="none" stroke="#1a2833" d="M1138,-190.969C1138,-174.378 1138,-148.883 1138,-129.431"/>
<polygon fill="#1a2833" stroke="#1a2833" points="1141.5,-129.341 1138,-119.341 1134.5,-129.341 1141.5,-129.341"/>
<text text-anchor="middle" x="1141" y="-152.5" font-family="Times,serif" font-size="10.00" fill="#767676">*</text>
</g>
<!-- mf2/mf2&#45;&gt;php -->
<g id="edge36" class="edge"><title>mf2/mf2&#45;&gt;php</title>
<path fill="none" stroke="#1a2833" d="M737.108,-439.856C727.304,-424.028 715,-399.487 715,-376 715,-376 715,-376 715,-100 715,-52.1771 557.147,-30.0906 483.284,-22.3735"/>
<polygon fill="#1a2833" stroke="#1a2833" points="483.325,-18.86 473.024,-21.3378 482.622,-25.8246 483.325,-18.86"/>
<text text-anchor="middle" x="731.5" y="-248" font-family="Times,serif" font-size="10.00" fill="#767676">&gt;=5.4.0</text>
</g>
<!-- mf2/mf2&#45;&gt;microformats/test -->
<g id="edge35" class="edge"><title>mf2/mf2&#45;&gt;microformats/test</title>
<path fill="none" stroke="#1a2833" d="M767.026,-439.822C779.085,-428.331 795.13,-413.041 808.492,-400.307"/>
<polygon fill="#1a2833" stroke="#1a2833" points="811.175,-402.586 816,-393.153 806.346,-397.518 811.175,-402.586"/>
<text text-anchor="middle" x="809.5" y="-414" font-family="Times,serif" font-size="10.00" fill="#767676">@dev</text>
</g>
<!-- ml/json&#45;ld&#45;&gt;php -->
<g id="edge41" class="edge"><title>ml/json&#45;ld&#45;&gt;php</title>
<path fill="none" stroke="#1a2833" d="M873.42,-190.858C843.373,-175.147 800.492,-149.699 770,-119 745.93,-94.7665 757.837,-72.3035 729,-54 689.027,-28.6287 550.81,-21.6316 483.466,-19.7152"/>
<polygon fill="#1a2833" stroke="#1a2833" points="483.38,-16.2119 473.292,-19.4492 483.197,-23.2095 483.38,-16.2119"/>
<text text-anchor="middle" x="786.5" y="-98.5" font-family="Times,serif" font-size="10.00" fill="#767676">&gt;=5.3.0</text>
</g>
<!-- ml/iri -->
<g id="node22" class="node"><title>ml/iri</title>
<path fill="#eeeeee" stroke="black" d="M883.5,-119C883.5,-119 824.5,-119 824.5,-119 818.5,-119 812.5,-113 812.5,-107 812.5,-107 812.5,-95 812.5,-95 812.5,-89 818.5,-83 824.5,-83 824.5,-83 883.5,-83 883.5,-83 889.5,-83 895.5,-89 895.5,-95 895.5,-95 895.5,-107 895.5,-107 895.5,-113 889.5,-119 883.5,-119"/>
<text text-anchor="middle" x="854" y="-97.3" font-family="Times,serif" font-size="14.00" fill="#314b5f">ml/iri: 1.1.4</text>
</g>
<!-- ml/json&#45;ld&#45;&gt;ml/iri -->
<g id="edge40" class="edge"><title>ml/json&#45;ld&#45;&gt;ml/iri</title>
<path fill="none" stroke="#1a2833" d="M900.163,-190.969C891.395,-174.071 877.834,-147.935 867.675,-128.356"/>
<polygon fill="#1a2833" stroke="#1a2833" points="870.71,-126.605 862.997,-119.341 864.496,-129.829 870.71,-126.605"/>
<text text-anchor="middle" x="902.5" y="-152.5" font-family="Times,serif" font-size="10.00" fill="#767676">^1.1.1</text>
</g>
<!-- ext&#45;json -->
<g id="node24" class="node"><title>ext&#45;json</title>
<path fill="#eeeeee" stroke="black" d="M962,-119C962,-119 926,-119 926,-119 920,-119 914,-113 914,-107 914,-107 914,-95 914,-95 914,-89 920,-83 926,-83 926,-83 962,-83 962,-83 968,-83 974,-89 974,-95 974,-95 974,-107 974,-107 974,-113 968,-119 962,-119"/>
<text text-anchor="middle" x="944" y="-97.3" font-family="Times,serif" font-size="14.00" fill="#314b5f">ext&#45;json</text>
</g>
<!-- ml/json&#45;ld&#45;&gt;ext&#45;json -->
<g id="edge39" class="edge"><title>ml/json&#45;ld&#45;&gt;ext&#45;json</title>
<path fill="none" stroke="#1a2833" d="M914.623,-190.969C920.152,-174.224 928.676,-148.41 935.121,-128.892"/>
<polygon fill="#1a2833" stroke="#1a2833" points="938.462,-129.934 938.274,-119.341 931.815,-127.739 938.462,-129.934"/>
<text text-anchor="middle" x="935" y="-152.5" font-family="Times,serif" font-size="10.00" fill="#767676">*</text>
</g>
<!-- monolog/monolog&#45;&gt;php -->
<g id="edge44" class="edge"><title>monolog/monolog&#45;&gt;php</title>
<path fill="none" stroke="#1a2833" d="M553.234,-273.931C540.345,-236.098 509.579,-147.686 500,-137 488.324,-123.975 475.471,-133.012 465,-119 449.435,-98.1713 445.485,-68.2501 444.941,-46.5695"/>
<polygon fill="#1a2833" stroke="#1a2833" points="448.441,-46.3617 444.917,-36.37 441.441,-46.3781 448.441,-46.3617"/>
<text text-anchor="middle" x="533.5" y="-152.5" font-family="Times,serif" font-size="10.00" fill="#767676">&gt;=5.3.0</text>
</g>
<!-- monolog/monolog&#45;&gt;psr/log -->
<g id="edge45" class="edge"><title>monolog/monolog&#45;&gt;psr/log</title>
<path fill="none" stroke="#1a2833" d="M571.937,-273.822C580.347,-262.653 591.462,-247.895 600.884,-235.384"/>
<polygon fill="#1a2833" stroke="#1a2833" points="603.862,-237.247 607.082,-227.153 598.27,-233.036 603.862,-237.247"/>
<text text-anchor="middle" x="603.5" y="-248" font-family="Times,serif" font-size="10.00" fill="#767676">~1.0</text>
</g>
<!-- psr/log&#45;&gt;php -->
<g id="edge43" class="edge"><title>psr/log&#45;&gt;php</title>
<path fill="none" stroke="#1a2833" d="M627.142,-190.801C636.665,-164.852 649.839,-115.3 627,-83 594.468,-36.9914 525.966,-23.8387 483.191,-20.2115"/>
<polygon fill="#1a2833" stroke="#1a2833" points="483.394,-16.7171 473.17,-19.4955 482.895,-23.6993 483.394,-16.7171"/>
<text text-anchor="middle" x="656.5" y="-98.5" font-family="Times,serif" font-size="10.00" fill="#767676">&gt;=5.3.0</text>
</g>
<!-- guzzlehttp/guzzle&#45;&gt;php -->
<g id="edge12" class="edge"><title>guzzlehttp/guzzle&#45;&gt;php</title>
<path fill="none" stroke="#1a2833" d="M353.178,-273.8C335.635,-262.827 315.366,-246.92 304,-227 284.117,-192.152 285.622,-175.474 297,-137 312.528,-84.4927 370.529,-50.4769 409.417,-33.0417"/>
<polygon fill="#1a2833" stroke="#1a2833" points="411.062,-36.1436 418.855,-28.9651 408.286,-29.7175 411.062,-36.1436"/>
<text text-anchor="middle" x="309.5" y="-152.5" font-family="Times,serif" font-size="10.00" fill="#767676">&gt;=5.5</text>
</g>
<!-- guzzlehttp/guzzle&#45;&gt;psr/log -->
<g id="edge14" class="edge"><title>guzzlehttp/guzzle&#45;&gt;psr/log</title>
<path fill="none" stroke="#1a2833" stroke-dasharray="5,2" d="M435.339,-273.921C473.536,-260.699 526.39,-242.403 565.769,-228.772"/>
<polygon fill="#1a2833" stroke="#1a2833" points="567.168,-231.992 575.473,-225.413 564.878,-225.377 567.168,-231.992"/>
<text text-anchor="middle" x="527" y="-248" font-family="Times,serif" font-size="10.00" fill="#767676">^1.0</text>
</g>
<!-- guzzlehttp/promises -->
<g id="node12" class="node"><title>guzzlehttp/promises</title>
<path fill="#eeeeee" stroke="black" d="M487,-173C487,-173 343,-173 343,-173 337,-173 331,-167 331,-161 331,-161 331,-149 331,-149 331,-143 337,-137 343,-137 343,-137 487,-137 487,-137 493,-137 499,-143 499,-149 499,-149 499,-161 499,-161 499,-167 493,-173 487,-173"/>
<text text-anchor="middle" x="415" y="-151.3" font-family="Times,serif" font-size="14.00" fill="#314b5f">guzzlehttp/promises: v1.3.1</text>
</g>
<!-- guzzlehttp/guzzle&#45;&gt;guzzlehttp/promises -->
<g id="edge10" class="edge"><title>guzzlehttp/guzzle&#45;&gt;guzzlehttp/promises</title>
<path fill="none" stroke="#1a2833" d="M414.659,-273.816C430.338,-262.657 448.298,-246.559 457,-227 463.504,-212.381 463.786,-205.489 457,-191 455.188,-187.132 452.716,-183.542 449.871,-180.253"/>
<polygon fill="#1a2833" stroke="#1a2833" points="452.256,-177.689 442.692,-173.132 447.327,-182.659 452.256,-177.689"/>
<text text-anchor="middle" x="455" y="-248" font-family="Times,serif" font-size="10.00" fill="#767676">^1.0</text>
</g>
<!-- guzzlehttp/psr7 -->
<g id="node13" class="node"><title>guzzlehttp/psr7</title>
<path fill="#eeeeee" stroke="black" d="M436.5,-227C436.5,-227 325.5,-227 325.5,-227 319.5,-227 313.5,-221 313.5,-215 313.5,-215 313.5,-203 313.5,-203 313.5,-197 319.5,-191 325.5,-191 325.5,-191 436.5,-191 436.5,-191 442.5,-191 448.5,-197 448.5,-203 448.5,-203 448.5,-215 448.5,-215 448.5,-221 442.5,-227 436.5,-227"/>
<text text-anchor="middle" x="381" y="-205.3" font-family="Times,serif" font-size="14.00" fill="#314b5f">guzzlehttp/psr7: 1.4.2</text>
</g>
<!-- guzzlehttp/guzzle&#45;&gt;guzzlehttp/psr7 -->
<g id="edge11" class="edge"><title>guzzlehttp/guzzle&#45;&gt;guzzlehttp/psr7</title>
<path fill="none" stroke="#1a2833" d="M384.94,-273.822C384.283,-263.19 383.426,-249.306 382.679,-237.204"/>
<polygon fill="#1a2833" stroke="#1a2833" points="386.168,-236.919 382.059,-227.153 379.182,-237.35 386.168,-236.919"/>
<text text-anchor="middle" x="393" y="-248" font-family="Times,serif" font-size="10.00" fill="#767676">^1.4</text>
</g>
<!-- ext&#45;curl -->
<g id="node14" class="node"><title>ext&#45;curl</title>
<path fill="#eeeeee" stroke="black" d="M1193.5,-36C1193.5,-36 1158.5,-36 1158.5,-36 1152.5,-36 1146.5,-30 1146.5,-24 1146.5,-24 1146.5,-12 1146.5,-12 1146.5,-6 1152.5,-0 1158.5,-0 1158.5,-0 1193.5,-0 1193.5,-0 1199.5,-0 1205.5,-6 1205.5,-12 1205.5,-12 1205.5,-24 1205.5,-24 1205.5,-30 1199.5,-36 1193.5,-36"/>
<text text-anchor="middle" x="1176" y="-14.3" font-family="Times,serif" font-size="14.00" fill="#314b5f">ext&#45;curl</text>
</g>
<!-- guzzlehttp/guzzle&#45;&gt;ext&#45;curl -->
<g id="edge13" class="edge"><title>guzzlehttp/guzzle&#45;&gt;ext&#45;curl</title>
<path fill="none" stroke="#1a2833" stroke-dasharray="5,2" d="M459.693,-275.748C463.173,-275.134 466.622,-274.548 470,-274 534.973,-263.464 551.758,-264.715 617,-256 650.829,-251.481 659.055,-248.546 693,-245 723.896,-241.773 944.999,-242.361 972,-227 1022.57,-198.227 1014.57,-167.97 1046,-119 1064.2,-90.6467 1059.21,-75.6721 1085,-54 1099.73,-41.6209 1119.33,-33.3341 1136.56,-27.9462"/>
<polygon fill="#1a2833" stroke="#1a2833" points="1137.75,-31.2459 1146.38,-25.0999 1135.8,-24.5227 1137.75,-31.2459"/>
<text text-anchor="middle" x="1039" y="-152.5" font-family="Times,serif" font-size="10.00" fill="#767676">*</text>
</g>
<!-- guzzlehttp/promises&#45;&gt;php -->
<g id="edge15" class="edge"><title>guzzlehttp/promises&#45;&gt;php</title>
<path fill="none" stroke="#1a2833" d="M405.324,-136.706C402.742,-131.215 400.308,-125.006 399,-119 395.596,-103.366 394.017,-98.2042 399,-83 403.653,-68.8031 412.79,-55.1566 421.78,-44.1387"/>
<polygon fill="#1a2833" stroke="#1a2833" points="424.687,-46.1259 428.549,-36.2601 419.377,-41.5639 424.687,-46.1259"/>
<text text-anchor="middle" x="415.5" y="-98.5" font-family="Times,serif" font-size="10.00" fill="#767676">&gt;=5.5.0</text>
</g>
<!-- guzzlehttp/psr7&#45;&gt;php -->
<g id="edge16" class="edge"><title>guzzlehttp/psr7&#45;&gt;php</title>
<path fill="none" stroke="#1a2833" d="M346.195,-190.939C339.684,-186.081 333.752,-180.126 330,-173 322.545,-158.843 326.097,-152.517 330,-137 336.645,-110.581 341.146,-103.576 359,-83 373.546,-66.2364 393.24,-51.2924 410.212,-40.0692"/>
<polygon fill="#1a2833" stroke="#1a2833" points="412.279,-42.9016 418.798,-34.5495 408.493,-37.0135 412.279,-42.9016"/>
<text text-anchor="middle" x="375.5" y="-98.5" font-family="Times,serif" font-size="10.00" fill="#767676">&gt;=5.4.0</text>
</g>
<!-- guzzlehttp/psr7&#45;&gt;psr/http&#45;message -->
<g id="edge17" class="edge"><title>guzzlehttp/psr7&#45;&gt;psr/http&#45;message</title>
<path fill="none" stroke="#1a2833" d="M448.694,-203.186C491.929,-198.54 542.348,-189.653 556,-173 566.003,-160.798 563.649,-143.274 558.723,-128.689"/>
<polygon fill="#1a2833" stroke="#1a2833" points="561.905,-127.216 555.021,-119.163 555.381,-129.752 561.905,-127.216"/>
<text text-anchor="middle" x="572.5" y="-152.5" font-family="Times,serif" font-size="10.00" fill="#767676">~1.0</text>
</g>
<!-- psr/http&#45;message&#45;&gt;php -->
<g id="edge42" class="edge"><title>psr/http&#45;message&#45;&gt;php</title>
<path fill="none" stroke="#1a2833" d="M524.793,-82.822C510.341,-71.1164 491.022,-55.4679 475.131,-42.5959"/>
<polygon fill="#1a2833" stroke="#1a2833" points="477.151,-39.7278 467.177,-36.1533 472.745,-45.1672 477.151,-39.7278"/>
<text text-anchor="middle" x="518.5" y="-57" font-family="Times,serif" font-size="10.00" fill="#767676">&gt;=5.3.0</text>
</g>
<!-- jeremykendall/php&#45;domain&#45;parser&#45;&gt;php -->
<g id="edge21" class="edge"><title>jeremykendall/php&#45;domain&#45;parser&#45;&gt;php</title>
<path fill="none" stroke="#1a2833" d="M1237.44,-84.8043C1232.57,-84.1922 1227.74,-83.5887 1223,-83 1116.38,-69.7443 1089.98,-63.9422 983,-54 795.69,-36.5926 570.826,-24.916 483.358,-20.7241"/>
<polygon fill="#1a2833" stroke="#1a2833" points="483.298,-17.2174 473.143,-20.2388 482.966,-24.2095 483.298,-17.2174"/>
<text text-anchor="middle" x="1099.5" y="-57" font-family="Times,serif" font-size="10.00" fill="#767676">&gt;=5.3.0</text>
</g>
<!-- jeremykendall/php&#45;domain&#45;parser&#45;&gt;ext&#45;curl -->
<g id="edge18" class="edge"><title>jeremykendall/php&#45;domain&#45;parser&#45;&gt;ext&#45;curl</title>
<path fill="none" stroke="#1a2833" d="M1317.83,-82.822C1287.56,-69.2032 1245.44,-50.2472 1214.97,-36.536"/>
<polygon fill="#1a2833" stroke="#1a2833" points="1216.07,-33.1939 1205.52,-32.282 1213.2,-39.5774 1216.07,-33.1939"/>
<text text-anchor="middle" x="1280" y="-57" font-family="Times,serif" font-size="10.00" fill="#767676">*</text>
</g>
<!-- jeremykendall/php&#45;domain&#45;parser&#45;&gt;ext&#45;intl -->
<g id="edge19" class="edge"><title>jeremykendall/php&#45;domain&#45;parser&#45;&gt;ext&#45;intl</title>
<path fill="none" stroke="#1a2833" d="M1374.66,-82.822C1387.26,-71.2238 1404.07,-55.7547 1417.98,-42.9508"/>
<polygon fill="#1a2833" stroke="#1a2833" points="1420.38,-45.5008 1425.36,-36.1533 1415.64,-40.3505 1420.38,-45.5008"/>
<text text-anchor="middle" x="1409" y="-57" font-family="Times,serif" font-size="10.00" fill="#767676">*</text>
</g>
<!-- jeremykendall/php&#45;domain&#45;parser&#45;&gt;ext&#45;mbstring -->
<g id="edge20" class="edge"><title>jeremykendall/php&#45;domain&#45;parser&#45;&gt;ext&#45;mbstring</title>
<path fill="none" stroke="#1a2833" d="M1338.61,-82.822C1326.98,-71.3312 1311.5,-56.0409 1298.61,-43.3072"/>
<polygon fill="#1a2833" stroke="#1a2833" points="1300.94,-40.6908 1291.37,-36.1533 1296.02,-45.6709 1300.94,-40.6908"/>
<text text-anchor="middle" x="1323" y="-57" font-family="Times,serif" font-size="10.00" fill="#767676">*</text>
</g>
<!-- masterminds/html5&#45;&gt;php -->
<g id="edge34" class="edge"><title>masterminds/html5&#45;&gt;php</title>
<path fill="none" stroke="#1a2833" d="M142.549,-273.74C131.739,-261.765 118.839,-244.816 113,-227 108.017,-211.796 107.861,-206.152 113,-191 137.639,-118.349 151.988,-93.0858 218,-54 249.483,-35.3589 352.18,-25.4974 408.391,-21.3793"/>
<polygon fill="#1a2833" stroke="#1a2833" points="408.921,-24.8507 418.649,-20.6538 408.427,-17.8681 408.921,-24.8507"/>
<text text-anchor="middle" x="150.5" y="-152.5" font-family="Times,serif" font-size="10.00" fill="#767676">&gt;=5.3.0</text>
</g>
<!-- ext&#45;libxml -->
<g id="node21" class="node"><title>ext&#45;libxml</title>
<path fill="#eeeeee" stroke="black" d="M184,-227C184,-227 134,-227 134,-227 128,-227 122,-221 122,-215 122,-215 122,-203 122,-203 122,-197 128,-191 134,-191 134,-191 184,-191 184,-191 190,-191 196,-197 196,-203 196,-203 196,-215 196,-215 196,-221 190,-227 184,-227"/>
<text text-anchor="middle" x="159" y="-205.3" font-family="Times,serif" font-size="14.00" fill="#314b5f">ext&#45;libxml</text>
</g>
<!-- masterminds/html5&#45;&gt;ext&#45;libxml -->
<g id="edge33" class="edge"><title>masterminds/html5&#45;&gt;ext&#45;libxml</title>
<path fill="none" stroke="#1a2833" d="M159.788,-273.822C159.657,-263.19 159.485,-249.306 159.336,-237.204"/>
<polygon fill="#1a2833" stroke="#1a2833" points="162.835,-237.109 159.212,-227.153 155.836,-237.196 162.835,-237.109"/>
<text text-anchor="middle" x="163" y="-248" font-family="Times,serif" font-size="10.00" fill="#767676">*</text>
</g>
<!-- ml/iri&#45;&gt;php -->
<g id="edge38" class="edge"><title>ml/iri&#45;&gt;php</title>
<path fill="none" stroke="#1a2833" d="M830.705,-82.8988C815.599,-72.7318 795.059,-60.5725 775,-54 721.673,-36.5269 558.093,-25.3373 483.625,-21.0184"/>
<polygon fill="#1a2833" stroke="#1a2833" points="483.491,-17.5052 473.308,-20.4311 483.093,-24.4938 483.491,-17.5052"/>
<text text-anchor="middle" x="817.5" y="-57" font-family="Times,serif" font-size="10.00" fill="#767676">&gt;=5.3.0</text>
</g>
<!-- lib&#45;pcre -->
<g id="node23" class="node"><title>lib&#45;pcre</title>
<path fill="#eeeeee" stroke="black" d="M1048.5,-36C1048.5,-36 1013.5,-36 1013.5,-36 1007.5,-36 1001.5,-30 1001.5,-24 1001.5,-24 1001.5,-12 1001.5,-12 1001.5,-6 1007.5,-0 1013.5,-0 1013.5,-0 1048.5,-0 1048.5,-0 1054.5,-0 1060.5,-6 1060.5,-12 1060.5,-12 1060.5,-24 1060.5,-24 1060.5,-30 1054.5,-36 1048.5,-36"/>
<text text-anchor="middle" x="1031" y="-14.3" font-family="Times,serif" font-size="14.00" fill="#314b5f">lib&#45;pcre</text>
</g>
<!-- ml/iri&#45;&gt;lib&#45;pcre -->
<g id="edge37" class="edge"><title>ml/iri&#45;&gt;lib&#45;pcre</title>
<path fill="none" stroke="#1a2833" d="M891.537,-82.822C921.114,-69.287 962.21,-50.4803 992.126,-36.7897"/>
<polygon fill="#1a2833" stroke="#1a2833" points="993.781,-39.8815 1001.42,-32.5376 990.868,-33.5163 993.781,-39.8815"/>
<text text-anchor="middle" x="966.5" y="-57" font-family="Times,serif" font-size="10.00" fill="#767676">&gt;=4.0</text>
</g>
</g>
</svg>
