<?xml version="1.0" encoding="UTF-8" standalone="no"?>
<!DOCTYPE svg PUBLIC "-//W3C//DTD SVG 1.1//EN"
 "http://www.w3.org/Graphics/SVG/1.1/DTD/svg11.dtd">
<!-- Generated by graphviz version 2.28.0 (20110507.0327)
 -->
<!-- Title: G Pages: 1 -->
<svg width="465pt" height="952pt"
 viewBox="0.00 0.00 465.00 952.00" xmlns="http://www.w3.org/2000/svg" xmlns:xlink="http://www.w3.org/1999/xlink">
<g id="graph1" class="graph" transform="scale(1 1) rotate(0) translate(4 948)">
<title>G</title>
<polygon fill="white" stroke="white" points="-4,5 -4,-948 462,-948 462,5 -4,5"/>
<g id="graph2" class="cluster"><title>cluster_Global</title>
<polyline fill="none" stroke="gray" points="92,-260 437,-260 "/>
<path fill="none" stroke="gray" d="M437,-260C443,-260 449,-266 449,-272"/>
<polyline fill="none" stroke="gray" points="449,-272 449,-924 "/>
<path fill="none" stroke="gray" d="M449,-924C449,-930 443,-936 437,-936"/>
<polyline fill="none" stroke="gray" points="437,-936 92,-936 "/>
<path fill="none" stroke="gray" d="M92,-936C86,-936 80,-930 80,-924"/>
<polyline fill="none" stroke="gray" points="80,-924 80,-272 "/>
<path fill="none" stroke="gray" d="M80,-272C80,-266 86,-260 92,-260"/>
<text text-anchor="middle" x="264.5" y="-923.2" font-family="Times New Roman,serif" font-size="11.00" fill="gray">\</text>
</g>
<g id="graph3" class="cluster"><title>cluster_\Jkphl</title>
<polyline fill="none" stroke="gray" points="100,-314 429,-314 "/>
<path fill="none" stroke="gray" d="M429,-314C435,-314 441,-320 441,-326"/>
<polyline fill="none" stroke="gray" points="441,-326 441,-896 "/>
<path fill="none" stroke="gray" d="M441,-896C441,-902 435,-908 429,-908"/>
<polyline fill="none" stroke="gray" points="429,-908 100,-908 "/>
<path fill="none" stroke="gray" d="M100,-908C94,-908 88,-902 88,-896"/>
<polyline fill="none" stroke="gray" points="88,-896 88,-326 "/>
<path fill="none" stroke="gray" d="M88,-326C88,-320 94,-314 100,-314"/>
<text text-anchor="middle" x="264.5" y="-895.2" font-family="Times New Roman,serif" font-size="11.00" fill="gray">Jkphl</text>
</g>
<g id="graph4" class="cluster"><title>cluster_\Jkphl\Micrometa</title>
<polyline fill="none" stroke="gray" points="108,-448 421,-448 "/>
<path fill="none" stroke="gray" d="M421,-448C427,-448 433,-454 433,-460"/>
<polyline fill="none" stroke="gray" points="433,-460 433,-868 "/>
<path fill="none" stroke="gray" d="M433,-868C433,-874 427,-880 421,-880"/>
<polyline fill="none" stroke="gray" points="421,-880 108,-880 "/>
<path fill="none" stroke="gray" d="M108,-880C102,-880 96,-874 96,-868"/>
<polyline fill="none" stroke="gray" points="96,-868 96,-460 "/>
<path fill="none" stroke="gray" d="M96,-460C96,-454 102,-448 108,-448"/>
<text text-anchor="middle" x="264.5" y="-867.2" font-family="Times New Roman,serif" font-size="11.00" fill="gray">Micrometa</text>
</g>
<g id="graph5" class="cluster"><title>cluster_\Jkphl\Micrometa\Parser</title>
<polyline fill="none" stroke="gray" points="339,-456 413,-456 "/>
<path fill="none" stroke="gray" d="M413,-456C419,-456 425,-462 425,-468"/>
<polyline fill="none" stroke="gray" points="425,-468 425,-840 "/>
<path fill="none" stroke="gray" d="M425,-840C425,-846 419,-852 413,-852"/>
<polyline fill="none" stroke="gray" points="413,-852 339,-852 "/>
<path fill="none" stroke="gray" d="M339,-852C333,-852 327,-846 327,-840"/>
<polyline fill="none" stroke="gray" points="327,-840 327,-468 "/>
<path fill="none" stroke="gray" d="M327,-468C327,-462 333,-456 339,-456"/>
<text text-anchor="middle" x="376" y="-839.2" font-family="Times New Roman,serif" font-size="11.00" fill="gray">Parser</text>
</g>
<g id="graph6" class="cluster"><title>cluster_\Jkphl\Micrometa\Parser\Microformats2</title>
<polyline fill="none" stroke="gray" points="347,-618 405,-618 "/>
<path fill="none" stroke="gray" d="M405,-618C411,-618 417,-624 417,-630"/>
<polyline fill="none" stroke="gray" points="417,-630 417,-732 "/>
<path fill="none" stroke="gray" d="M417,-732C417,-738 411,-744 405,-744"/>
<polyline fill="none" stroke="gray" points="405,-744 347,-744 "/>
<path fill="none" stroke="gray" d="M347,-744C341,-744 335,-738 335,-732"/>
<polyline fill="none" stroke="gray" points="335,-732 335,-630 "/>
<path fill="none" stroke="gray" d="M335,-630C335,-624 341,-618 347,-618"/>
<text text-anchor="middle" x="376" y="-731.2" font-family="Times New Roman,serif" font-size="11.00" fill="gray">Microformats2</text>
</g>
<g id="graph7" class="cluster"><title>cluster_\Jkphl\Micrometa\Parser\Microdata</title>
<polyline fill="none" stroke="gray" points="353,-752 399,-752 "/>
<path fill="none" stroke="gray" d="M399,-752C405,-752 411,-758 411,-764"/>
<polyline fill="none" stroke="gray" points="411,-764 411,-812 "/>
<path fill="none" stroke="gray" d="M411,-812C411,-818 405,-824 399,-824"/>
<polyline fill="none" stroke="gray" points="399,-824 353,-824 "/>
<path fill="none" stroke="gray" d="M353,-824C347,-824 341,-818 341,-812"/>
<polyline fill="none" stroke="gray" points="341,-812 341,-764 "/>
<path fill="none" stroke="gray" d="M341,-764C341,-758 347,-752 353,-752"/>
<text text-anchor="middle" x="376" y="-811.2" font-family="Times New Roman,serif" font-size="11.00" fill="gray">Microdata</text>
</g>
<g id="graph8" class="cluster"><title>cluster_\Jkphl\Utility</title>
<polyline fill="none" stroke="gray" points="353,-368 399,-368 "/>
<path fill="none" stroke="gray" d="M399,-368C405,-368 411,-374 411,-380"/>
<polyline fill="none" stroke="gray" points="411,-380 411,-428 "/>
<path fill="none" stroke="gray" d="M411,-428C411,-434 405,-440 399,-440"/>
<polyline fill="none" stroke="gray" points="399,-440 353,-440 "/>
<path fill="none" stroke="gray" d="M353,-440C347,-440 341,-434 341,-428"/>
<polyline fill="none" stroke="gray" points="341,-428 341,-380 "/>
<path fill="none" stroke="gray" d="M341,-380C341,-374 347,-368 353,-368"/>
<text text-anchor="middle" x="376" y="-427.2" font-family="Times New Roman,serif" font-size="11.00" fill="gray">Utility</text>
</g>
<!-- \\Jkphl\\Micrometa\\Parser\\Microformats2\\Item -->
<g id="node6" class="node"><title>\\Jkphl\\Micrometa\\Parser\\Microformats2\\Item</title>
<polygon fill="none" stroke="black" points="403,-716 349,-716 349,-680 403,-680 403,-716"/>
<text text-anchor="middle" x="376" y="-695.2" font-family="Times New Roman,serif" font-size="11.00">Item</text>
</g>
<!-- \\Jkphl\\Micrometa\\Item -->
<g id="node13" class="node"><title>\\Jkphl\\Micrometa\\Item</title>
<polygon fill="none" stroke="black" points="158,-756 104,-756 104,-720 158,-720 158,-756"/>
<text text-anchor="middle" x="131" y="-735.2" font-family="Times New Roman,serif" font-size="11.00">Item</text>
</g>
<!-- \\Jkphl\\Micrometa\\Parser\\Microformats2\\Item&#45;&gt;\\Jkphl\\Micrometa\\Item -->
<g id="edge11" class="edge"><title>\\Jkphl\\Micrometa\\Parser\\Microformats2\\Item&#45;&gt;\\Jkphl\\Micrometa\\Item</title>
<path fill="none" stroke="black" d="M348.995,-702.281C305.444,-709.45 217.674,-723.897 168.145,-732.05"/>
<polygon fill="none" stroke="black" points="167.484,-728.612 158.186,-733.69 168.621,-735.519 167.484,-728.612"/>
</g>
<!-- \\Jkphl\\Micrometa\\Parser\\Microformats2\\Exception -->
<g id="node7" class="node"><title>\\Jkphl\\Micrometa\\Parser\\Microformats2\\Exception</title>
<polygon fill="none" stroke="black" points="406,-662 346,-662 346,-626 406,-626 406,-662"/>
<text text-anchor="middle" x="376" y="-641.2" font-family="Times New Roman,serif" font-size="11.00">Exception</text>
</g>
<!-- \\OutOfBoundsException -->
<g id="node27" class="node"><title>\\OutOfBoundsException</title>
<ellipse fill="none" stroke="black" cx="131" cy="-234" rx="101.282" ry="18"/>
<text text-anchor="middle" x="131" y="-230.3" font-family="Times New Roman,serif" font-size="14.00" fill="gray">\OutOfBoundsException</text>
</g>
<!-- \\Jkphl\\Micrometa\\Parser\\Microformats2\\Exception&#45;&gt;\\OutOfBoundsException -->
<g id="edge19" class="edge"><title>\\Jkphl\\Micrometa\\Parser\\Microformats2\\Exception&#45;&gt;\\OutOfBoundsException</title>
<path fill="none" stroke="black" d="M345.687,-634.98C338.857,-631.765 332.099,-627.523 327,-622 269.865,-560.123 298.801,-519.755 262,-444 228.436,-374.909 178.189,-299.682 151.043,-260.739"/>
<polygon fill="none" stroke="black" points="153.587,-258.272 144.979,-252.094 147.856,-262.291 153.587,-258.272"/>
</g>
<!-- \\Jkphl\\Micrometa\\Parser\\Microdata\\Item -->
<g id="node9" class="node"><title>\\Jkphl\\Micrometa\\Parser\\Microdata\\Item</title>
<polygon fill="none" stroke="black" points="403,-796 349,-796 349,-760 403,-760 403,-796"/>
<text text-anchor="middle" x="376" y="-775.2" font-family="Times New Roman,serif" font-size="11.00">Item</text>
</g>
<!-- \\Jkphl\\Micrometa\\Parser\\Microdata\\Item&#45;&gt;\\Jkphl\\Micrometa\\Item -->
<g id="edge17" class="edge"><title>\\Jkphl\\Micrometa\\Parser\\Microdata\\Item&#45;&gt;\\Jkphl\\Micrometa\\Item</title>
<path fill="none" stroke="black" d="M348.995,-773.719C305.444,-766.55 217.674,-752.103 168.145,-743.95"/>
<polygon fill="none" stroke="black" points="168.621,-740.481 158.186,-742.31 167.484,-747.388 168.621,-740.481"/>
</g>
<!-- \\Jkphl\\Micrometa\\Parser\\MicrodataPhp -->
<g id="node10" class="node"><title>\\Jkphl\\Micrometa\\Parser\\MicrodataPhp</title>
<polygon fill="none" stroke="black" points="415.5,-608 336.5,-608 336.5,-572 415.5,-572 415.5,-608"/>
<text text-anchor="middle" x="376" y="-587.2" font-family="Times New Roman,serif" font-size="11.00">MicrodataPhp</text>
</g>
<!-- \\MicrodataPhp -->
<g id="node19" class="node"><title>\\MicrodataPhp</title>
<ellipse fill="none" stroke="black" cx="131" cy="-180" rx="64.9885" ry="18"/>
<text text-anchor="middle" x="131" y="-176.3" font-family="Times New Roman,serif" font-size="14.00" fill="gray">\MicrodataPhp</text>
</g>
<!-- \\Jkphl\\Micrometa\\Parser\\MicrodataPhp&#45;&gt;\\MicrodataPhp -->
<g id="edge9" class="edge"><title>\\Jkphl\\Micrometa\\Parser\\MicrodataPhp&#45;&gt;\\MicrodataPhp</title>
<path fill="none" stroke="black" d="M336.248,-572.531C332.739,-569.747 329.554,-566.581 327,-563 233.613,-432.051 374.346,-322.097 262,-207 247.333,-191.974 226.643,-184.222 206.075,-180.471"/>
<polygon fill="none" stroke="black" points="206.427,-176.985 196.014,-178.937 205.372,-183.905 206.427,-176.985"/>
</g>
<!-- \\Jkphl\\Micrometa\\Parser\\Microformats2 -->
<g id="node11" class="node"><title>\\Jkphl\\Micrometa\\Parser\\Microformats2</title>
<polygon fill="none" stroke="black" points="417,-554 335,-554 335,-518 417,-518 417,-554"/>
<text text-anchor="middle" x="376" y="-533.2" font-family="Times New Roman,serif" font-size="11.00">Microformats2</text>
</g>
<!-- \\Mf2\\Parser -->
<g id="node22" class="node"><title>\\Mf2\\Parser</title>
<ellipse fill="none" stroke="black" cx="131" cy="-126" rx="53.8905" ry="18"/>
<text text-anchor="middle" x="131" y="-122.3" font-family="Times New Roman,serif" font-size="14.00" fill="gray">\Mf2\Parser</text>
</g>
<!-- \\Jkphl\\Micrometa\\Parser\\Microformats2&#45;&gt;\\Mf2\\Parser -->
<g id="edge13" class="edge"><title>\\Jkphl\\Micrometa\\Parser\\Microformats2&#45;&gt;\\Mf2\\Parser</title>
<path fill="none" stroke="black" d="M335.34,-517.796C332.19,-515.193 329.332,-512.269 327,-509 233.613,-378.051 374.346,-268.097 262,-153 244.671,-135.247 218.936,-127.649 194.925,-124.805"/>
<polygon fill="none" stroke="black" points="195.051,-121.302 184.77,-123.861 194.403,-128.272 195.051,-121.302"/>
</g>
<!-- \\Jkphl\\Micrometa\\Parser\\Microdata -->
<g id="node12" class="node"><title>\\Jkphl\\Micrometa\\Parser\\Microdata</title>
<polygon fill="none" stroke="black" points="407,-500 345,-500 345,-464 407,-464 407,-500"/>
<text text-anchor="middle" x="376" y="-479.2" font-family="Times New Roman,serif" font-size="11.00">Microdata</text>
</g>
<!-- \\Microdata\\Reader -->
<g id="node29" class="node"><title>\\Microdata\\Reader</title>
<ellipse fill="none" stroke="black" cx="131" cy="-72" rx="78.7863" ry="18"/>
<text text-anchor="middle" x="131" y="-68.3" font-family="Times New Roman,serif" font-size="14.00" fill="gray">\Microdata\Reader</text>
</g>
<!-- \\Jkphl\\Micrometa\\Parser\\Microdata&#45;&gt;\\Microdata\\Reader -->
<g id="edge21" class="edge"><title>\\Jkphl\\Micrometa\\Parser\\Microdata&#45;&gt;\\Microdata\\Reader</title>
<path fill="none" stroke="black" d="M345.367,-463.936C338.374,-458.358 331.618,-451.641 327,-444 246.286,-310.468 371.302,-210.35 262,-99 250.5,-87.2844 235.337,-79.9977 219.44,-75.5824"/>
<polygon fill="none" stroke="black" points="220.013,-72.1207 209.472,-73.1903 218.38,-78.9274 220.013,-72.1207"/>
</g>
<!-- \\Jkphl\\Utility\\Url -->
<g id="node15" class="node"><title>\\Jkphl\\Utility\\Url</title>
<polygon fill="none" stroke="black" points="403,-412 349,-412 349,-376 403,-376 403,-412"/>
<text text-anchor="middle" x="376" y="-391.2" font-family="Times New Roman,serif" font-size="11.00">Url</text>
</g>
<!-- \\Jkphl\\Micrometa -->
<g id="node16" class="node"><title>\\Jkphl\\Micrometa</title>
<polygon fill="none" stroke="black" points="408.5,-358 343.5,-358 343.5,-322 408.5,-322 408.5,-358"/>
<text text-anchor="middle" x="376" y="-337.2" font-family="Times New Roman,serif" font-size="11.00">Micrometa</text>
</g>
<!-- \\MicrometaTest -->
<g id="node17" class="node"><title>\\MicrometaTest</title>
<polygon fill="none" stroke="black" points="418,-304 334,-304 334,-268 418,-268 418,-304"/>
<text text-anchor="middle" x="376" y="-283.2" font-family="Times New Roman,serif" font-size="11.00">MicrometaTest</text>
</g>
<!-- \\PHPUnit_Framework_TestCase -->
<g id="node24" class="node"><title>\\PHPUnit_Framework_TestCase</title>
<ellipse fill="none" stroke="black" cx="131" cy="-18" rx="130.777" ry="18"/>
<text text-anchor="middle" x="131" y="-14.3" font-family="Times New Roman,serif" font-size="14.00" fill="gray">\PHPUnit_Framework_TestCase</text>
</g>
<!-- \\MicrometaTest&#45;&gt;\\PHPUnit_Framework_TestCase -->
<g id="edge15" class="edge"><title>\\MicrometaTest&#45;&gt;\\PHPUnit_Framework_TestCase</title>
<path fill="none" stroke="black" d="M372.124,-267.776C363.945,-222.357 336.157,-103.578 262,-45 256.155,-40.383 249.715,-36.5014 242.922,-33.2431"/>
<polygon fill="none" stroke="black" points="244.033,-29.9111 233.464,-29.1757 241.268,-36.3417 244.033,-29.9111"/>
</g>
</g>
</svg>
