<?xml version="1.0" encoding="UTF-8" standalone="no"?>
<!DOCTYPE svg PUBLIC "-//W3C//DTD SVG 1.1//EN"
 "http://www.w3.org/Graphics/SVG/1.1/DTD/svg11.dtd">
<!-- Generated by graphviz version 2.28.0 (20110507.0327)
 -->
<!-- Title: G Pages: 1 -->
<svg width="332pt" height="430pt"
 viewBox="0.00 0.00 332.00 430.00" xmlns="http://www.w3.org/2000/svg" xmlns:xlink="http://www.w3.org/1999/xlink">
<g id="graph1" class="graph" transform="scale(1 1) rotate(0) translate(4 426)">
<title>G</title>
<polygon fill="white" stroke="white" points="-4,5 -4,-426 329,-426 329,5 -4,5"/>
<g id="graph2" class="cluster"><title>cluster_Global</title>
<polyline fill="none" stroke="gray" points="182,-8 304,-8 "/>
<path fill="none" stroke="gray" d="M304,-8C310,-8 316,-14 316,-20"/>
<polyline fill="none" stroke="gray" points="316,-20 316,-402 "/>
<path fill="none" stroke="gray" d="M316,-402C316,-408 310,-414 304,-414"/>
<polyline fill="none" stroke="gray" points="304,-414 182,-414 "/>
<path fill="none" stroke="gray" d="M182,-414C176,-414 170,-408 170,-402"/>
<polyline fill="none" stroke="gray" points="170,-402 170,-20 "/>
<path fill="none" stroke="gray" d="M170,-20C170,-14 176,-8 182,-8"/>
<text text-anchor="middle" x="243" y="-401.2" font-family="Times New Roman,serif" font-size="11.00" fill="gray">\</text>
</g>
<g id="graph3" class="cluster"><title>cluster_\Jkphl</title>
<polyline fill="none" stroke="gray" points="190,-16 296,-16 "/>
<path fill="none" stroke="gray" d="M296,-16C302,-16 308,-22 308,-28"/>
<polyline fill="none" stroke="gray" points="308,-28 308,-374 "/>
<path fill="none" stroke="gray" d="M308,-374C308,-380 302,-386 296,-386"/>
<polyline fill="none" stroke="gray" points="296,-386 190,-386 "/>
<path fill="none" stroke="gray" d="M190,-386C184,-386 178,-380 178,-374"/>
<polyline fill="none" stroke="gray" points="178,-374 178,-28 "/>
<path fill="none" stroke="gray" d="M178,-28C178,-22 184,-16 190,-16"/>
<text text-anchor="middle" x="243" y="-373.2" font-family="Times New Roman,serif" font-size="11.00" fill="gray">Jkphl</text>
</g>
<g id="graph4" class="cluster"><title>cluster_\Jkphl\Micrometa</title>
<polyline fill="none" stroke="gray" points="198,-150 288,-150 "/>
<path fill="none" stroke="gray" d="M288,-150C294,-150 300,-156 300,-162"/>
<polyline fill="none" stroke="gray" points="300,-162 300,-346 "/>
<path fill="none" stroke="gray" d="M300,-346C300,-352 294,-358 288,-358"/>
<polyline fill="none" stroke="gray" points="288,-358 198,-358 "/>
<path fill="none" stroke="gray" d="M198,-358C192,-358 186,-352 186,-346"/>
<polyline fill="none" stroke="gray" points="186,-346 186,-162 "/>
<path fill="none" stroke="gray" d="M186,-162C186,-156 192,-150 198,-150"/>
<text text-anchor="middle" x="243" y="-345.2" font-family="Times New Roman,serif" font-size="11.00" fill="gray">Micrometa</text>
</g>
<g id="graph5" class="cluster"><title>cluster_\Jkphl\Micrometa\Parser</title>
<polyline fill="none" stroke="gray" points="206,-204 280,-204 "/>
<path fill="none" stroke="gray" d="M280,-204C286,-204 292,-210 292,-216"/>
<polyline fill="none" stroke="gray" points="292,-216 292,-318 "/>
<path fill="none" stroke="gray" d="M292,-318C292,-324 286,-330 280,-330"/>
<polyline fill="none" stroke="gray" points="280,-330 206,-330 "/>
<path fill="none" stroke="gray" d="M206,-330C200,-330 194,-324 194,-318"/>
<polyline fill="none" stroke="gray" points="194,-318 194,-216 "/>
<path fill="none" stroke="gray" d="M194,-216C194,-210 200,-204 206,-204"/>
<text text-anchor="middle" x="243" y="-317.2" font-family="Times New Roman,serif" font-size="11.00" fill="gray">Parser</text>
</g>
<g id="graph6" class="cluster"><title>cluster_\Jkphl\Utility</title>
<polyline fill="none" stroke="gray" points="220,-70 266,-70 "/>
<path fill="none" stroke="gray" d="M266,-70C272,-70 278,-76 278,-82"/>
<polyline fill="none" stroke="gray" points="278,-82 278,-130 "/>
<path fill="none" stroke="gray" d="M278,-130C278,-136 272,-142 266,-142"/>
<polyline fill="none" stroke="gray" points="266,-142 220,-142 "/>
<path fill="none" stroke="gray" d="M220,-142C214,-142 208,-136 208,-130"/>
<polyline fill="none" stroke="gray" points="208,-130 208,-82 "/>
<path fill="none" stroke="gray" d="M208,-82C208,-76 214,-70 220,-70"/>
<text text-anchor="middle" x="243" y="-129.2" font-family="Times New Roman,serif" font-size="11.00" fill="gray">Utility</text>
</g>
<!-- \\Jkphl\\Micrometa\\Parser\\Microformats2 -->
<g id="node5" class="node"><title>\\Jkphl\\Micrometa\\Parser\\Microformats2</title>
<polygon fill="none" stroke="black" points="284,-302 202,-302 202,-266 284,-266 284,-302"/>
<text text-anchor="middle" x="243" y="-281.2" font-family="Times New Roman,serif" font-size="11.00">Microformats2</text>
</g>
<!-- \\Mf2\\Parser -->
<g id="node12" class="node"><title>\\Mf2\\Parser</title>
<ellipse fill="none" stroke="black" cx="65" cy="-284" rx="53.8905" ry="18"/>
<text text-anchor="middle" x="65" y="-280.3" font-family="Times New Roman,serif" font-size="14.00" fill="gray">\Mf2\Parser</text>
</g>
<!-- \\Jkphl\\Micrometa\\Parser\\Microformats2&#45;&gt;\\Mf2\\Parser -->
<g id="edge7" class="edge"><title>\\Jkphl\\Micrometa\\Parser\\Microformats2&#45;&gt;\\Mf2\\Parser</title>
<path fill="none" stroke="black" d="M201.622,-284C180.221,-284 153.443,-284 129.347,-284"/>
<polygon fill="none" stroke="black" points="129.208,-280.5 119.208,-284 129.208,-287.5 129.208,-280.5"/>
</g>
<!-- \\Jkphl\\Micrometa\\Parser\\Microdata -->
<g id="node6" class="node"><title>\\Jkphl\\Micrometa\\Parser\\Microdata</title>
<polygon fill="none" stroke="black" points="274,-248 212,-248 212,-212 274,-212 274,-248"/>
<text text-anchor="middle" x="243" y="-227.2" font-family="Times New Roman,serif" font-size="11.00">Microdata</text>
</g>
<!-- \\MicrodataPhp -->
<g id="node14" class="node"><title>\\MicrodataPhp</title>
<ellipse fill="none" stroke="black" cx="65" cy="-230" rx="64.9885" ry="18"/>
<text text-anchor="middle" x="65" y="-226.3" font-family="Times New Roman,serif" font-size="14.00" fill="gray">\MicrodataPhp</text>
</g>
<!-- \\Jkphl\\Micrometa\\Parser\\Microdata&#45;&gt;\\MicrodataPhp -->
<g id="edge9" class="edge"><title>\\Jkphl\\Micrometa\\Parser\\Microdata&#45;&gt;\\MicrodataPhp</title>
<path fill="none" stroke="black" d="M211.745,-230C192.049,-230 165.445,-230 140.358,-230"/>
<polygon fill="none" stroke="black" points="140.096,-226.5 130.096,-230 140.096,-233.5 140.096,-226.5"/>
</g>
<!-- \\Jkphl\\Micrometa\\Item -->
<g id="node7" class="node"><title>\\Jkphl\\Micrometa\\Item</title>
<polygon fill="none" stroke="black" points="270,-194 216,-194 216,-158 270,-158 270,-194"/>
<text text-anchor="middle" x="243" y="-173.2" font-family="Times New Roman,serif" font-size="11.00">Item</text>
</g>
<!-- \\Jkphl\\Utility\\Url -->
<g id="node9" class="node"><title>\\Jkphl\\Utility\\Url</title>
<polygon fill="none" stroke="black" points="270,-114 216,-114 216,-78 270,-78 270,-114"/>
<text text-anchor="middle" x="243" y="-93.2" font-family="Times New Roman,serif" font-size="11.00">Url</text>
</g>
<!-- \\Jkphl\\Micrometa -->
<g id="node10" class="node"><title>\\Jkphl\\Micrometa</title>
<polygon fill="none" stroke="black" points="275.5,-60 210.5,-60 210.5,-24 275.5,-24 275.5,-60"/>
<text text-anchor="middle" x="243" y="-39.2" font-family="Times New Roman,serif" font-size="11.00">Micrometa</text>
</g>
</g>
</svg>
