<?xml version="1.0" encoding="UTF-8" standalone="no"?>
<!DOCTYPE svg PUBLIC "-//W3C//DTD SVG 1.1//EN"
 "http://www.w3.org/Graphics/SVG/1.1/DTD/svg11.dtd">
<!-- Generated by graphviz version 2.28.0 (20110507.0327)
 -->
<!-- Title: G Pages: 1 -->
<svg width="360pt" height="484pt"
 viewBox="0.00 0.00 360.00 484.00" xmlns="http://www.w3.org/2000/svg" xmlns:xlink="http://www.w3.org/1999/xlink">
<g id="graph1" class="graph" transform="scale(1 1) rotate(0) translate(4 480)">
<title>G</title>
<polygon fill="white" stroke="white" points="-4,5 -4,-480 357,-480 357,5 -4,5"/>
<g id="graph2" class="cluster"><title>cluster_Global</title>
<polyline fill="none" stroke="gray" points="210,-8 332,-8 "/>
<path fill="none" stroke="gray" d="M332,-8C338,-8 344,-14 344,-20"/>
<polyline fill="none" stroke="gray" points="344,-20 344,-456 "/>
<path fill="none" stroke="gray" d="M344,-456C344,-462 338,-468 332,-468"/>
<polyline fill="none" stroke="gray" points="332,-468 210,-468 "/>
<path fill="none" stroke="gray" d="M210,-468C204,-468 198,-462 198,-456"/>
<polyline fill="none" stroke="gray" points="198,-456 198,-20 "/>
<path fill="none" stroke="gray" d="M198,-20C198,-14 204,-8 210,-8"/>
<text text-anchor="middle" x="271" y="-455.2" font-family="Times New Roman,serif" font-size="11.00" fill="gray">\</text>
</g>
<g id="graph3" class="cluster"><title>cluster_\Jkphl</title>
<polyline fill="none" stroke="gray" points="218,-16 324,-16 "/>
<path fill="none" stroke="gray" d="M324,-16C330,-16 336,-22 336,-28"/>
<polyline fill="none" stroke="gray" points="336,-28 336,-428 "/>
<path fill="none" stroke="gray" d="M336,-428C336,-434 330,-440 324,-440"/>
<polyline fill="none" stroke="gray" points="324,-440 218,-440 "/>
<path fill="none" stroke="gray" d="M218,-440C212,-440 206,-434 206,-428"/>
<polyline fill="none" stroke="gray" points="206,-428 206,-28 "/>
<path fill="none" stroke="gray" d="M206,-28C206,-22 212,-16 218,-16"/>
<text text-anchor="middle" x="271" y="-427.2" font-family="Times New Roman,serif" font-size="11.00" fill="gray">Jkphl</text>
</g>
<g id="graph4" class="cluster"><title>cluster_\Jkphl\Micrometa</title>
<polyline fill="none" stroke="gray" points="226,-150 316,-150 "/>
<path fill="none" stroke="gray" d="M316,-150C322,-150 328,-156 328,-162"/>
<polyline fill="none" stroke="gray" points="328,-162 328,-400 "/>
<path fill="none" stroke="gray" d="M328,-400C328,-406 322,-412 316,-412"/>
<polyline fill="none" stroke="gray" points="316,-412 226,-412 "/>
<path fill="none" stroke="gray" d="M226,-412C220,-412 214,-406 214,-400"/>
<polyline fill="none" stroke="gray" points="214,-400 214,-162 "/>
<path fill="none" stroke="gray" d="M214,-162C214,-156 220,-150 226,-150"/>
<text text-anchor="middle" x="271" y="-399.2" font-family="Times New Roman,serif" font-size="11.00" fill="gray">Micrometa</text>
</g>
<g id="graph5" class="cluster"><title>cluster_\Jkphl\Micrometa\Parser</title>
<polyline fill="none" stroke="gray" points="234,-204 308,-204 "/>
<path fill="none" stroke="gray" d="M308,-204C314,-204 320,-210 320,-216"/>
<polyline fill="none" stroke="gray" points="320,-216 320,-372 "/>
<path fill="none" stroke="gray" d="M320,-372C320,-378 314,-384 308,-384"/>
<polyline fill="none" stroke="gray" points="308,-384 234,-384 "/>
<path fill="none" stroke="gray" d="M234,-384C228,-384 222,-378 222,-372"/>
<polyline fill="none" stroke="gray" points="222,-372 222,-216 "/>
<path fill="none" stroke="gray" d="M222,-216C222,-210 228,-204 234,-204"/>
<text text-anchor="middle" x="271" y="-371.2" font-family="Times New Roman,serif" font-size="11.00" fill="gray">Parser</text>
</g>
<g id="graph6" class="cluster"><title>cluster_\Jkphl\Utility</title>
<polyline fill="none" stroke="gray" points="248,-70 294,-70 "/>
<path fill="none" stroke="gray" d="M294,-70C300,-70 306,-76 306,-82"/>
<polyline fill="none" stroke="gray" points="306,-82 306,-130 "/>
<path fill="none" stroke="gray" d="M306,-130C306,-136 300,-142 294,-142"/>
<polyline fill="none" stroke="gray" points="294,-142 248,-142 "/>
<path fill="none" stroke="gray" d="M248,-142C242,-142 236,-136 236,-130"/>
<polyline fill="none" stroke="gray" points="236,-130 236,-82 "/>
<path fill="none" stroke="gray" d="M236,-82C236,-76 242,-70 248,-70"/>
<text text-anchor="middle" x="271" y="-129.2" font-family="Times New Roman,serif" font-size="11.00" fill="gray">Utility</text>
</g>
<!-- \\Jkphl\\Micrometa\\Parser\\Microformats2 -->
<g id="node5" class="node"><title>\\Jkphl\\Micrometa\\Parser\\Microformats2</title>
<polygon fill="none" stroke="black" points="312,-356 230,-356 230,-320 312,-320 312,-356"/>
<text text-anchor="middle" x="271" y="-335.2" font-family="Times New Roman,serif" font-size="11.00">Microformats2</text>
</g>
<!-- \\Mf2\\Parser -->
<g id="node13" class="node"><title>\\Mf2\\Parser</title>
<ellipse fill="none" stroke="black" cx="79" cy="-338" rx="53.8905" ry="18"/>
<text text-anchor="middle" x="79" y="-334.3" font-family="Times New Roman,serif" font-size="14.00" fill="gray">\Mf2\Parser</text>
</g>
<!-- \\Jkphl\\Micrometa\\Parser\\Microformats2&#45;&gt;\\Mf2\\Parser -->
<g id="edge7" class="edge"><title>\\Jkphl\\Micrometa\\Parser\\Microformats2&#45;&gt;\\Mf2\\Parser</title>
<path fill="none" stroke="black" d="M229.706,-338C204.676,-338 171.959,-338 143.497,-338"/>
<polygon fill="none" stroke="black" points="143.226,-334.5 133.226,-338 143.226,-341.5 143.226,-334.5"/>
</g>
<!-- \\Jkphl\\Micrometa\\Parser\\Microdata -->
<g id="node6" class="node"><title>\\Jkphl\\Micrometa\\Parser\\Microdata</title>
<polygon fill="none" stroke="black" points="302,-302 240,-302 240,-266 302,-266 302,-302"/>
<text text-anchor="middle" x="271" y="-281.2" font-family="Times New Roman,serif" font-size="11.00">Microdata</text>
</g>
<!-- \\Microdata\\Reader -->
<g id="node15" class="node"><title>\\Microdata\\Reader</title>
<ellipse fill="none" stroke="black" cx="79" cy="-284" rx="78.7863" ry="18"/>
<text text-anchor="middle" x="79" y="-280.3" font-family="Times New Roman,serif" font-size="14.00" fill="gray">\Microdata\Reader</text>
</g>
<!-- \\Jkphl\\Micrometa\\Parser\\Microdata&#45;&gt;\\Microdata\\Reader -->
<g id="edge9" class="edge"><title>\\Jkphl\\Micrometa\\Parser\\Microdata&#45;&gt;\\Microdata\\Reader</title>
<path fill="none" stroke="black" d="M239.894,-284C220.403,-284 193.93,-284 168.136,-284"/>
<polygon fill="none" stroke="black" points="167.917,-280.5 157.917,-284 167.917,-287.5 167.917,-280.5"/>
</g>
<!-- \\Jkphl\\Micrometa\\Parser\\MicrodataPhp -->
<g id="node7" class="node"><title>\\Jkphl\\Micrometa\\Parser\\MicrodataPhp</title>
<polygon fill="none" stroke="black" points="310.5,-248 231.5,-248 231.5,-212 310.5,-212 310.5,-248"/>
<text text-anchor="middle" x="271" y="-227.2" font-family="Times New Roman,serif" font-size="11.00">MicrodataPhp</text>
</g>
<!-- \\MicrodataPhp -->
<g id="node17" class="node"><title>\\MicrodataPhp</title>
<ellipse fill="none" stroke="black" cx="79" cy="-230" rx="64.9885" ry="18"/>
<text text-anchor="middle" x="79" y="-226.3" font-family="Times New Roman,serif" font-size="14.00" fill="gray">\MicrodataPhp</text>
</g>
<!-- \\Jkphl\\Micrometa\\Parser\\MicrodataPhp&#45;&gt;\\MicrodataPhp -->
<g id="edge11" class="edge"><title>\\Jkphl\\Micrometa\\Parser\\MicrodataPhp&#45;&gt;\\MicrodataPhp</title>
<path fill="none" stroke="black" d="M231.092,-230C209.048,-230 180.725,-230 154.571,-230"/>
<polygon fill="none" stroke="black" points="154.29,-226.5 144.29,-230 154.29,-233.5 154.29,-226.5"/>
</g>
<!-- \\Jkphl\\Micrometa\\Item -->
<g id="node8" class="node"><title>\\Jkphl\\Micrometa\\Item</title>
<polygon fill="none" stroke="black" points="298,-194 244,-194 244,-158 298,-158 298,-194"/>
<text text-anchor="middle" x="271" y="-173.2" font-family="Times New Roman,serif" font-size="11.00">Item</text>
</g>
<!-- \\Jkphl\\Utility\\Url -->
<g id="node10" class="node"><title>\\Jkphl\\Utility\\Url</title>
<polygon fill="none" stroke="black" points="298,-114 244,-114 244,-78 298,-78 298,-114"/>
<text text-anchor="middle" x="271" y="-93.2" font-family="Times New Roman,serif" font-size="11.00">Url</text>
</g>
<!-- \\Jkphl\\Micrometa -->
<g id="node11" class="node"><title>\\Jkphl\\Micrometa</title>
<polygon fill="none" stroke="black" points="303.5,-60 238.5,-60 238.5,-24 303.5,-24 303.5,-60"/>
<text text-anchor="middle" x="271" y="-39.2" font-family="Times New Roman,serif" font-size="11.00">Micrometa</text>
</g>
</g>
</svg>
